<?xml version="1.0" encoding="utf-8"?>
<!-- Generator: Adobe Illustrator 23.0.6, SVG Export Plug-In . SVG Version: 6.00 Build 0)  -->
<svg version="1.1" id="Capa_1" xmlns="http://www.w3.org/2000/svg" xmlns:xlink="http://www.w3.org/1999/xlink" x="0px" y="0px"
	 viewBox="0 0 43 24" style="enable-background:new 0 0 43 24;" xml:space="preserve">
<style type="text/css">
	.st0{enable-background:new    ;}
	.st1{fill:#0277BD;}
	.st2{fill:#4FC3F7;}
</style>
<title>logo</title>
<desc>Created with Sketch.</desc>
<g>
	<g transform="translate(-23.000000, -39.000000)">
		<g id="navbar-ppal">
			<g id="bg_logo" transform="translate(8.000000, 16.000000)">
				<g class="st0">
					<path class="st1" d="M26,35l6.1-10.6c0.1-0.1,0.2-0.3,0.4-0.5c0.2-0.2,0.5-0.4,0.9-0.4h2.2c0.2,0,0.4,0.1,0.6,0.3
						c0.2,0.2,0.3,0.4,0.3,0.6v20.7c0,0.2-0.1,0.4-0.3,0.6c-0.2,0.2-0.4,0.3-0.6,0.3H33c-0.2,0-0.4-0.1-0.6-0.3s-0.3-0.4-0.3-0.6
						V32.6L28,39.8c-0.1,0.2-0.3,0.3-0.4,0.5c-0.2,0.2-0.4,0.3-0.7,0.3h-1.7c-0.3,0-0.5-0.1-0.7-0.3c-0.2-0.2-0.3-0.4-0.4-0.5
						l-4.2-7.2v12.5c0,0.2-0.1,0.4-0.3,0.6C19.4,45.9,19.2,46,19,46h-2.6c-0.2,0-0.4-0.1-0.6-0.3c-0.2-0.2-0.3-0.4-0.3-0.6V24.5
						c0-0.2,0.1-0.4,0.3-0.6c0.2-0.2,0.4-0.3,0.6-0.3h2.2c0.4,0,0.7,0.1,0.9,0.4c0.2,0.2,0.3,0.4,0.4,0.5L26,35z"/>
				</g>
				<g class="st0">
					<path class="st2" d="M53.3,27.6H42.8c-0.2,0-0.4-0.1-0.6-0.3c-0.2-0.2-0.3-0.4-0.3-0.6v-2.3c0-0.2,0.1-0.4,0.3-0.6
						c0.2-0.2,0.4-0.3,0.6-0.3h14c0.2,0,0.4,0.1,0.6,0.3c0.2,0.2,0.3,0.4,0.3,0.6V38c0,2.8-0.8,4.8-2.3,6.2
						c-1.5,1.4-3.7,2.1-6.6,2.1c-1.5,0-2.8-0.2-3.9-0.6s-2-0.9-2.7-1.5c-0.7-0.6-1.3-1.4-1.6-2.2c-0.4-0.9-0.6-1.8-0.6-2.8
						c0-0.3,0.1-0.5,0.2-0.6c0.2-0.2,0.4-0.2,0.6-0.2h2.6c0.2,0,0.3,0.1,0.5,0.2c0.2,0.1,0.3,0.3,0.3,0.4c0.1,0.4,0.2,0.8,0.4,1.2
						s0.5,0.8,0.9,1.1c0.4,0.3,0.8,0.6,1.3,0.7c0.5,0.2,1.2,0.3,1.9,0.3c1.5,0,2.6-0.4,3.4-1.2c0.8-0.8,1.2-1.9,1.2-3.4V27.6z"/>
				</g>
			</g>
		</g>
	</g>
</g>
</svg>
