<svg xmlns="http://www.w3.org/2000/svg" viewBox="0 0 238.92 40.48"><defs><style>.cls-1{fill:#0277bd;}.cls-2{fill:#4fc3f7;}</style></defs><title>Capa 1-2</title><g id="Capa_2" data-name="Capa 2"><g id="Capa_1-2" data-name="Capa 1"><g id="Capa_1-2-2" data-name="Capa 1-2"><path class="cls-1" d="M18.37,20.55,29,2.07l.75-.89A2.09,2.09,0,0,1,31.42.56h3.8A1.44,1.44,0,0,1,36.29,1a1.47,1.47,0,0,1,.45,1.06V38.25a1.47,1.47,0,0,1-.45,1.06,1.49,1.49,0,0,1-1.07.45H30.69a1.49,1.49,0,0,1-1.07-.45,1.42,1.42,0,0,1-.44-1.06V16.35L21.9,29a5,5,0,0,1-.79.93,1.79,1.79,0,0,1-1.29.47H16.91a1.81,1.81,0,0,1-1.29-.47,4.94,4.94,0,0,1-.78-.93L7.56,16.35v21.9a1.54,1.54,0,0,1-1.51,1.51H1.51a1.47,1.47,0,0,1-1.06-.45A1.47,1.47,0,0,1,0,38.25V2.07A1.45,1.45,0,0,1,.45,1,1.42,1.42,0,0,1,1.51.56H5.32A2.07,2.07,0,0,1,7,1.18c.36.41.61.71.76.89Z"/><path class="cls-1" d="M43.51,25.2a18,18,0,0,1,1-5.91,14.24,14.24,0,0,1,2.75-4.81,12.75,12.75,0,0,1,4.34-3.22,13.22,13.22,0,0,1,5.68-1.18A13.57,13.57,0,0,1,63,11.23a13.17,13.17,0,0,1,4.34,3.08A13.79,13.79,0,0,1,70,18.84a15.4,15.4,0,0,1,1,5.46v2.52a1.54,1.54,0,0,1-1.51,1.52H50.79a4.67,4.67,0,0,0,.53,2.26,5.08,5.08,0,0,0,1.43,1.66,6.4,6.4,0,0,0,2.07,1,8.51,8.51,0,0,0,2.41.34,9.56,9.56,0,0,0,2.91-.36A5.91,5.91,0,0,0,62,32.31a5.69,5.69,0,0,1,1-.61,2.57,2.57,0,0,1,1.06-.17h4.48a1.56,1.56,0,0,1,1.1.45,1.27,1.27,0,0,1,.42,1,4.73,4.73,0,0,1-.87,2,9.6,9.6,0,0,1-2.44,2.4,15.45,15.45,0,0,1-4,2,16.71,16.71,0,0,1-5.52.84,14.19,14.19,0,0,1-5.68-1.09A12.08,12.08,0,0,1,47.21,36a14,14,0,0,1-2.75-4.79A19.13,19.13,0,0,1,43.51,25.2Zm13.72-8.4a7.25,7.25,0,0,0-2.77.48,5.94,5.94,0,0,0-1.93,1.23,5.3,5.3,0,0,0-1.21,1.68A6.29,6.29,0,0,0,50.79,22H63.45A11.14,11.14,0,0,0,63,20.19a4.56,4.56,0,0,0-1-1.68,5.13,5.13,0,0,0-1.85-1.23A7.63,7.63,0,0,0,57.23,16.8Z"/><path class="cls-1" d="M86.91,29.23A4,4,0,0,0,87.83,32c.62.7,1.77,1,3.45,1H94.7a1.54,1.54,0,0,1,1.51,1.51v3.7a1.54,1.54,0,0,1-1.51,1.51H90.55c-3.51,0-6.2-.85-8.09-2.55s-2.83-4.29-2.83-7.77v-12H75.94a1.54,1.54,0,0,1-1.52-1.51v-3.7a1.54,1.54,0,0,1,1.52-1.51h3.69V1.51A1.47,1.47,0,0,1,80.08.45,1.47,1.47,0,0,1,81.14,0H85.4a1.47,1.47,0,0,1,1.06.45,1.47,1.47,0,0,1,.45,1.06v9.13h7.23a1.54,1.54,0,0,1,1.51,1.51v3.7a1.54,1.54,0,0,1-1.51,1.51H86.91Z"/><path class="cls-1" d="M120.62.56A1.75,1.75,0,0,1,122,1a3.88,3.88,0,0,1,.78,1.42l13.72,35.4a1.32,1.32,0,0,1,.06.39A1.54,1.54,0,0,1,135,39.76h-4a2.06,2.06,0,0,1-1.56-.48,2.62,2.62,0,0,1-.62-.92l-2.41-6.22h-17.7l-2.4,6.22a2.62,2.62,0,0,1-.62.92,2.08,2.08,0,0,1-1.57.48h-4a1.54,1.54,0,0,1-1.51-1.51,1.32,1.32,0,0,1,.06-.39l13.71-35.4A4,4,0,0,1,113.12,1a1.76,1.76,0,0,1,1.34-.48Zm3.08,24.58-6.16-16-6.16,16Z"/><path class="cls-2" d="M161.84,7.56H143.47A1.55,1.55,0,0,1,142,6.05v-4a1.47,1.47,0,0,1,1.47-1.5h24.42A1.45,1.45,0,0,1,169,1a1.47,1.47,0,0,1,.45,1.06v23.7q0,7.23-4,10.89t-11.54,3.67a21.55,21.55,0,0,1-6.86-1,13.48,13.48,0,0,1-4.76-2.66,11,11,0,0,1-2.83-3.92,14.8,14.8,0,0,1-1.12-4.82,1.28,1.28,0,0,1,.42-1.09,1.64,1.64,0,0,1,1.1-.42h4.53a1.91,1.91,0,0,1,.93.28,1.2,1.2,0,0,1,.58.79,8,8,0,0,0,.79,2.18,6.26,6.26,0,0,0,1.51,1.88,7,7,0,0,0,2.35,1.28,10.36,10.36,0,0,0,3.36.48,8.16,8.16,0,0,0,5.94-2,7.86,7.86,0,0,0,2.07-5.88Z"/><path class="cls-2" d="M190.18,10.08a15.76,15.76,0,0,1,5.57.95A13,13,0,0,1,203,17.58a12.85,12.85,0,0,1,1.26,4.82q.06.64.06,1.29V26.8q0,.63-.06,1.26A13.85,13.85,0,0,1,203,32.87a12.25,12.25,0,0,1-2.88,3.89,13.49,13.49,0,0,1-4.31,2.61,16.79,16.79,0,0,1-11.15,0,13.49,13.49,0,0,1-4.31-2.61,12.25,12.25,0,0,1-2.88-3.89,13.85,13.85,0,0,1-1.29-4.81c0-.34-.07-.76-.08-1.26s0-1,0-1.54V23.69a5.84,5.84,0,0,1,.08-1.29,12.85,12.85,0,0,1,1.26-4.82A13,13,0,0,1,184.6,11,15.61,15.61,0,0,1,190.18,10.08ZM197,22.68a7.22,7.22,0,0,0-.81-2.88,5.18,5.18,0,0,0-1.6-1.82,5.62,5.62,0,0,0-2.07-.93,10.76,10.76,0,0,0-4.59,0,5.62,5.62,0,0,0-2.07.93,5.29,5.29,0,0,0-1.6,1.82,7.22,7.22,0,0,0-.81,2.88,10.54,10.54,0,0,0-.08,1.12v2.83a8,8,0,0,0,.08,1.09,7.22,7.22,0,0,0,.81,2.88,5.29,5.29,0,0,0,1.6,1.82,5.62,5.62,0,0,0,2.07.93,10.76,10.76,0,0,0,4.59,0,5.62,5.62,0,0,0,2.07-.93,5.18,5.18,0,0,0,1.6-1.82,7.22,7.22,0,0,0,.81-2.88,6.64,6.64,0,0,0,.06-1.09V23.8A10.51,10.51,0,0,0,197,22.68Z"/><path class="cls-2" d="M226.41,10.08a11.47,11.47,0,0,1,5.06,1.09,12.14,12.14,0,0,1,3.87,2.91,14.15,14.15,0,0,1,2.52,4.2,15.56,15.56,0,0,1,1,5c0,.56.06,1.21.06,2s0,1.4-.06,2a15.56,15.56,0,0,1-1,5,14.15,14.15,0,0,1-2.52,4.2,12.14,12.14,0,0,1-3.87,2.91,11.47,11.47,0,0,1-5.06,1.09A12.6,12.6,0,0,1,223.3,40a11.48,11.48,0,0,1-2.41-.84,8.62,8.62,0,0,1-1.76-1.09A8.78,8.78,0,0,1,218,37v1.29a1.54,1.54,0,0,1-1.51,1.51h-4.26a1.54,1.54,0,0,1-1.51-1.51V1.51a1.47,1.47,0,0,1,.45-1.06,1.43,1.43,0,0,1,1-.45h4.26a1.47,1.47,0,0,1,1.06.45,1.45,1.45,0,0,1,.5,1.06V13.44a9.35,9.35,0,0,1,1.18-1.09,8.62,8.62,0,0,1,1.76-1.09,11.48,11.48,0,0,1,2.41-.84A12.6,12.6,0,0,1,226.41,10.08Zm5.21,13.55a7.56,7.56,0,0,0-2.24-5.23,7,7,0,0,0-4.65-1.6,6.65,6.65,0,0,0-4.62,1.68A6.8,6.8,0,0,0,218,23.07a16.89,16.89,0,0,0-.11,2.13,16.89,16.89,0,0,0,.11,2.13A6.75,6.75,0,0,0,220.11,32a6.84,6.84,0,0,0,4.62,1.62,7,7,0,0,0,4.65-1.6q1.89-1.59,2.24-5.23a15.17,15.17,0,0,0,0-3.16Z"/></g></g></g></svg>